<?xml version="1.0" encoding="UTF-8"?>
<!-- Generator: Adobe Illustrator 19.2.1, SVG Export Plug-In . SVG Version: 6.00 Build 0)  -->
<svg version="1.1" id="Ebene_1" xmlns="http://www.w3.org/2000/svg" xmlns:xlink="http://www.w3.org/1999/xlink" x="0px" y="0px" viewBox="0 0 200 31" style="enable-background:new 0 0 200 31;" xml:space="preserve">
<style type="text/css">
	.st0{fill:#00A77F;}
</style>
<title>adnovum_logo</title>
<metadata><?xpacket begin="﻿" id="W5M0MpCehiHzreSzNTczkc9d"?>
<x:xmpmeta xmlns:x="adobe:ns:meta/" x:xmptk="Adobe XMP Core 5.6-c111 79.158366, 2015/09/25-01:12:00        ">
   <rdf:RDF xmlns:rdf="http://www.w3.org/1999/02/22-rdf-syntax-ns#">
      <rdf:Description rdf:about="" xmlns:dc="http://purl.org/dc/elements/1.1/">
         <dc:title>
            <rdf:Alt>
               <rdf:li xml:lang="x-default">adnovum_logo</rdf:li>
            </rdf:Alt>
         </dc:title>
      </rdf:Description>
   </rdf:RDF>
</x:xmpmeta>
                                                                                                    
                                                                                                    
                                                                                                    
                                                                                                    
                                                                                                    
                                                                                                    
                                                                                                    
                                                                                                    
                                                                                                    
                                                                                                    
                                                                                                    
                                                                                                    
                                                                                                    
                                                                                                    
                                                                                                    
                                                                                                    
                                                                                                    
                                                                                                    
                                                                                                    
                                                                                                    
                           
<?xpacket end="w"?></metadata>
<path d="M127.3,19.7c0,5.8-4.7,10.6-10.5,10.6c-5.8,0-10.6-4.7-10.6-10.5s4.7-10.6,10.5-10.6c0,0,0,0,0.1,0  C122.5,9.1,127.3,13.8,127.3,19.7C127.3,19.6,127.3,19.6,127.3,19.7z M108,19.7c0,4.9,4,8.8,8.9,8.7s8.8-4,8.7-8.9  c0-4.8-4-8.7-8.8-8.7C111.9,10.8,108,14.8,108,19.7L108,19.7z"/>
<path d="M140.4,26.3l6.2-16.8h2L140.4,31l-8-21.5h2L140.4,26.3z"/>
<path d="M156.6,21.6c0,2,0.2,3.1,1,4.5c1,1.4,2.7,2.3,4.5,2.2c1.7,0.1,3.4-0.7,4.4-2.1c1.1-1.3,1.1-3.1,1.1-4.6V9.5h1.7v12.7  c0,2.2-0.2,4-1.8,5.6c-1.4,1.5-3.4,2.3-5.5,2.3c-1.9,0-3.8-0.7-5.2-2.1c-1.8-1.7-2-3.5-2-5.9V9.5h1.8L156.6,21.6L156.6,21.6z"/>
<polygon points="180.6,8.6 188.6,26.5 188.8,26.8 196.7,8.6 197.4,8.6 200,29.8 198.1,29.8 196.3,14 195.9,14.8 188.9,30.4   188.5,30.4 181.1,14 181,15 179.2,29.8 177.3,29.9 180.1,8.6 "/>
<path d="M72.4,6.6c0,0,0,8.8,0,13.4c0.1,9,4.3,8.9,6.6,8.9v1H64.1v-1c4.1,0,7.1-2.4,7.1-8.4c0-8.3,0-14.8,0-14.8  c-1.1-1-2.2-2-3.4-2.9c-1.1-0.7-2.3-1-3.5-1v-1h16.8l17.2,16v-6.7c0-8.1-4.5-8.5-6.8-8.5V0.7h14.8v0.9c-2.3,0-6.9,0.5-6.9,8.9v19.8  h-1.1L72.4,6.6z"/>
<path class="st0" d="M99.6,1.6h-3.8c1,0.5,2.8,2.1,2.9,3.4C98.6,4.1,98.8,2.1,99.6,1.6z"/>
<path class="st0" d="M72.6,29h-4.3c0.8-0.4,3-2.6,3-3.7C71.3,26.2,71.5,28.3,72.6,29z"/>
<path class="st0" d="M68.3,1.8h8.4l21.6,20.1v7.2c0,0-26.6-24.6-27.3-25.2C70.2,3.1,69.3,2.4,68.3,1.8z"/>
<path d="M10,21.8c-1.1,3.5,0.4,7.1,5.1,7.1H16v0.9H0V29c3.7,0,5.8-3.1,8.4-7.2L20.6,0h1.2c0,0,12.3,22.1,13.3,24s2.2,5,7.2,5v0.8  H19.4v-0.9H21c4.1,0,3.9-1.9,3-3.6c-0.2-0.5-1.1-1.8-2.1-3.5L10,21.8L10,21.8z M21.3,20.7c-2.4-4.2-5.5-9.9-5.5-9.9  s-5.2,9.5-5.4,9.9H21.3z"/>
<path class="st0" d="M3.7,28.9h4.7c-0.8-1-1.2-2.3-1-3.5C6.4,26.8,5.2,28,3.7,28.9z"/>
<path class="st0" d="M24,23.1L16.5,9.7l3.2-5.9l14,25.1h-9.1C25.9,28.2,26.2,26.6,24,23.1z"/>
<path d="M45.7,9.5h3.7c3,0,5.5,0.4,7.9,2.4c4.2,3.9,4.5,10.5,0.6,14.7c-0.2,0.2-0.4,0.4-0.6,0.6c-2.4,2.1-4.8,2.5-8,2.6h-3.7V9.5z   M49.4,28.1c2.6,0,4.8-0.3,6.8-2.2c3.5-3.4,3.6-8.9,0.2-12.4c-0.1-0.1-0.2-0.2-0.3-0.3c-2-1.7-4.1-2.1-6.7-2.1h-1.7v17H49.4  L49.4,28.1z"/>
</svg>